<svg xmlns="http://www.w3.org/2000/svg"><style>:root svg:not(:target){display:none}</style><svg viewBox="0 0 1280 1072" id="arrow-right"><path d="M822.8 1.6c-6.3 1.9-15.1 10.1-18.8 17.5-9.6 19-11.1 47.5-5 95.8 4.9 38 19.7 107.1 32.7 152.4 1.3 4.9 2.3 9 2.1 9.2-.1.2-22.4-.1-49.3-.5-291.5-5.3-583.9-5.9-681.5-1.5-56.6 2.6-69.7 4.9-76.3 13.7-12.8 17-20 62.9-24.9 156.8-1.7 32.7-1.7 151.5 0 184 4.7 88.7 11.7 135.1 23 152 8 11.9 19.3 14.1 90.6 17 89.2 3.8 409.6 2.8 670.1-2 26.4-.4 48.1-.7 48.2-.6.2.2-1.3 5.9-3.2 12.9-10.6 39-22.1 89.2-27.4 120.7-12.6 74.6-10.2 115.8 7.7 133.8 13.7 13.8 33.5 11.8 68.9-6.8 64.3-33.8 158.9-114.7 229-196 84-97.5 134.7-191 148.9-274.9 6.8-40.1 5.3-79.8-4.6-120.9-24.7-102.4-104.5-222.2-221.5-332.6-72.9-68.8-148.3-121.1-187.3-130-8.6-1.9-15.1-1.9-21.4 0z"></path></svg><svg viewBox="0 0 1037 950" fill="none" id="background-1"><path d="M1037 619c0 119.85-91.5 330.5-464 330.5-985 0-378.5-348.5-478.5-675.5s939-363.5 866.5-97 76 322.15 76 442Z" fill="#323232"></path></svg><svg viewBox="0 0 1155 1280" id="footer-decor"><path d="M780.8 52.5c-6.6 2.1-13 8.9-17.8 18.8-4.7 9.8-7.5 18.2-9.2 27.1-.7 3.6-1.6 6.5-1.9 6.4-.4-.2-5-6.2-10.2-13.3-16.7-22.9-30.4-33.2-45.8-34.3-10.7-.7-14.9 2.1-14.9 10.1 0 4.3 9 30.7 13.4 39.5 2 3.9 3.6 7.3 3.6 7.6 0 .2-3.1-.7-6.8-2-3.7-1.3-11.1-3-16.3-3.8-28.9-4.6-52.9-2-55.9 6-2.5 6.5 6.8 16.8 22.3 24.4 10 4.9 13.2 5.9 38.5 11.6 6.7 1.5 12.2 3 12.2 3.4 0 .4-4.8 1-10.7 1.3-25.5 1.4-52.5 10.5-61.8 20.8-7.6 8.5-2.2 14.7 17.2 19.6 9.9 2.5 42.3 2.3 58.8-.5 6.6-1 12.2-1.8 12.4-1.6.2.2-3.9 4.8-9.1 10.3-11.5 11.9-15.1 18.4-15.6 28.2-.5 7.9.9 12.7 4.4 16 2.2 2 3.5 2.4 8.5 2.3 5.4-.1 7.8-1 25.5-9.8 10.8-5.3 20.9-10.5 22.4-11.6 1.5-1.1 3-1.7 3.2-1.4.3.2-1.5 6-3.9 12.7-6.8 18.9-17.5 50.4-23.7 69.7-7.3 23-12.2 42.4-19.2 76.5-3.1 15.4-5.9 29-6.1 30.1-.4 1.9-.9 2-3.8 1.4-4.2-.9-7.6.6-9.4 4.4-.7 1.5-2.2 3.7-3.2 4.7s-1.9 2.7-1.9 3.6c0 .9-.5 3.1-1.2 4.9-1.6 4.6.3 10.5 5.2 15.8l3.9 4.3-3 9.4c-1.6 5.2-6.9 19.9-11.7 32.8l-8.7 23.3-5.2-.5c-4.5-.5-5.5-.3-6.3 1.4-.8 1.4-.6 2.7.5 4.9 1.5 2.8 1.4 3-.4 3-3.2 0-5.1 1.1-5.1 3 0 3.5 1.2 5 5.1 6 5.6 1.5 4.8 3-1.5 3-6.7 0-8.9 1.9-6 5.1 1 1.2 3.2 2.8 4.7 3.6 2.1 1 2.7 1.9 2.2 3.1-.4.9-5.8 16.5-12 34.7-21.2 62.1-23.9 68.3-57.5 135.5-37.5 75-49.9 102.3-78.5 174.1-13.7 34.5-13.8 35-4.2 37.3 2.2.5 3.2.2 4.8-1.6 1.1-1.3 7.8-16.8 14.9-34.5 26.8-66.9 40.5-97.2 78.4-173.3 32.9-66 35.8-72.9 55.6-131.5 6.5-19.3 12.1-35.8 12.5-36.8.9-2.2 2.1-2.2 5.5.3 1.6 1.1 6.1 3.4 10.1 5.1 6.6 2.8 8.3 3.1 17.1 3 5.4 0 9.8.3 9.8.7 0 .5 1.9 1.3 4.3 1.9 2.3.6 6.7 1.8 9.7 2.7 3 .9 7.1 1.9 9 2.2 3.2.5 21.2 7.7 23.5 9.4.6.4 2.8 1.1 5 1.5 2.2.5 4.7 1 5.5 1.2.8.1 6.5 1 12.5 1.9 6.1.9 11.1 1.7 11.2 1.9.2.1-.3 2.4-1 5.1-.9 3.5-3.1 7.1-7.6 12.4-7.1 8.5-14.4 21.4-19.2 33.9-1.8 4.7-3.8 8.9-4.4 9.3-.5.4-1.1 5-1.2 10.5l-.1 9.8-7.4 15c-9.4 19.2-11.9 28-12.6 45-.3 8.8-1 13.7-1.9 15.2-.8 1.2-1.5 4.6-1.5 7.5.1 10.3 2.1 32.4 3.8 39.8 2.4 11 2.2 27.2-.4 40-3.3 15.9-4.2 27.1-4.2 54.5 0 28.7.8 35.5 5.2 44.3 3.3 6.6 7.1 10.2 14.8 14.3 3.8 2 5.9 2.4 14 2.4 8.6 0 10.7-.4 21.5-4.2 12.5-4.3 16.2-4.8 32.3-4.5 10.6.2 11 .5 17.1 10.6 5.6 9.3 8.1 17.8 9.6 32.3.8 7.3 1.9 16.1 2.5 19.5.6 3.5 1.2 18.7 1.3 33.9.2 25.7.3 27.8 2.1 29.8 1.1 1.2 2.8 2.1 3.8 2.1 1.4 0 1.8.5 1.4 1.8-.4 1-.2 4.7.4 8.3 2.9 19.2 3.4 28.6 2.1 41.5-.7 7.1-1.5 13.6-1.7 14.5-.2.8-2.1 2.5-4.2 3.7-6.8 3.8-14.1 16.2-14.2 24 0 3.2.6 4.9 2.5 6.7 3.4 3.5 9.6 3.3 22.5-.9 5.8-1.8 13.1-4.1 16.3-5 12-3.6 18.1-12.9 19.7-30.4.6-5.9 1.5-13 2-15.7.6-2.8 1.4-11.8 1.9-20.1.6-8.8 1.8-18.3 3-23 3.7-14.4 5.3-25.8 4.1-29-1.6-4.2-4.9-7.4-9.6-9.4-4.1-1.8-4.2-1.8-4.7-8.2-2-24.6-3-35.1-4.9-48.3-1.1-8.3-2.3-16.6-2.6-18.5l-.4-3.5 2.7 2.5c1.5 1.4 7.4 8.1 13 15 18.7 22.7 22.6 25.3 38.5 25.3 5.5 0 12.4-.7 16.5-1.7 3.9-1 12.6-2.4 19.5-3.2 6.9-.8 14.2-2 16.2-2.6 4.2-1.2 7.3-4.1 6.3-5.8-1.4-2.3-12.6-7-26.5-11-8-2.3-16.8-4.9-19.6-5.7-5-1.5-5.3-1.7-7.8-7.7-1.4-3.3-3.9-10-5.6-14.7-3.2-8.8-7-15.5-17.5-30.4-3.3-4.7-8.2-11.8-11-15.7-11.1-16-25.4-18.3-33.3-5.3-1.5 2.4-3.1 4.5-3.5 4.5-.5 0-2.4.7-4.3 1.6-1.9.9-3.6 1.5-3.8 1.3-.3-.2.5-5.1 1.6-10.9 1.7-8.9 2-14.1 1.9-34.7l-.2-24.2 3.5-9.4c5.9-15.5 6.8-21.1 6.8-41.7.1-23.4 0-24.8-1.5-25.7-.7-.4-2-2-3-3.5-.9-1.5-2.7-3-4-3.4-1.7-.4-4-4.3-10.1-17-8.1-17-9.4-21.6-8.2-29.8.7-4.3.9-4.6 3.2-4 5.1 1.3 7.3-3.2 11.5-23.6 3.9-19.2 6.3-25.8 18.1-49.7l10-20.1.5-9.6c.3-5.3 1-9.6 1.4-9.6.5 0 .9.4.9.9s.5 4.4 1.1 8.6c1 7.6 1 8-2.7 19.5-.3.8.7-.6 2.1-3.2 2.8-5.2 5.6-14.8 5.4-18.8l-.1-2.5-.7 2.5c-.7 2.3-.8 2.2-1.2-1.2-.3-2-.2-8.6.2-14.5s1.1-18.7 1.5-28.4c.7-16.5.8-17.6 2.8-18.5 1.8-.8 3.7-3.2 7.2-9 1.1-1.8 1.7-1.6 11.5 3.3 12.3 6.2 19.8 8.4 29.6 8.4 15.6.2 17.6-2.8 6.2-8.8-20.1-10.7-38.6-24.2-37.4-27.2 3.4-8.3 10-30.5 12.1-40.8 2.3-11.2 2.5-14.4 2.1-25.8-.8-18.9-4.3-28-16.7-42.2l-6.7-7.8-.6-12.6c-.4-6.9-1.8-21.3-3.3-31.9-4.1-31-4.8-31.3-13-4.7-1.5 5.1-4.4 11.4-6.8 15l-4.1 6.2-.7-9.5c-.8-9.8-.6-14.5 1.4-28.7 1.1-8.5.5-11.3-2.7-11.3-4.8 0-13.3 14-18 29.5-5.8 19.5-11 23.6-34.3 27.6-6.2 1.1-14.1 3-17.5 4.3-3.4 1.3-7.8 2.9-9.7 3.6-1.9.7-4.2 1.7-5 2.1-3.4 2-14.3 6.9-15.2 6.9-.6 0-2.3 1-3.8 2.2-1.6 1.3-5.7 3.9-9.1 5.8-8 4.5-22 17.6-24.3 22.9-1.8 3.9-1.8 4.1.3 7.6l2.1 3.6-6.1 10.6c-8.3 14.4-15.2 29-18.7 39.6l-2.8 8.7-3.7-7c-2-3.9-3.7-7.6-3.7-8.3 0-.7-1.3-4.4-2.9-8.2-1.6-3.9-3.2-8.6-3.5-10.6-.6-3.1-.3-3.9 1.9-5.3 2-1.3 2.3-2.2 1.8-4.6-.4-2.3-.2-3 1-3 2.1 0 3.1-1.8 1.9-3.3-.6-.7-1.2-2.3-1.4-3.7-.2-1.7-1-2.6-2.5-2.8-1.3-.2-2.3-.6-2.3-1 0-2.9 12.9-64 16.2-76.7 2.3-8.8 9.3-31.1 15.6-49.5 6.2-18.4 13.4-39.7 16-47.3 2.6-7.5 4.9-13.7 5.2-13.7.3 0 1.4 1.9 2.4 4.1 2.5 5.2 24.4 28.9 30.4 32.9 8.8 5.8 16.2 5 23-2.4 9.6-10.4 9.8-16.5.8-38.1-3.6-8.9-6.6-16.4-6.6-16.8 0-1 20.4 6.5 42.5 15.7 33.8 14.1 43.8 16.4 49.2 11 2.3-2.3 2.5-3.1 2-8-.8-7.5-5.9-16.5-14.2-24.9-7-7.1-19.6-15.8-24.8-17-5.7-1.5-3.5-2.5 5.3-2.5 12.5 0 36.5-1.8 47.9-3.6 14.8-2.3 22.1-6.5 20.7-11.8-.9-3.8-6.4-8.7-14.2-12.8-14.7-7.7-31.5-11-55.6-11.2-9.3-.1-16.8-.2-16.8-.3 0-.1 4.2-2.4 9.4-5.2 21.4-11.5 37.8-25.1 40.6-33.6 1.7-5.1-.1-9-5.4-11.8-3.3-1.7-6.2-2.2-15.6-2.5-9.8-.3-13 0-21.2 2.2-16.3 4.2-34 12.5-49.6 23.2-3.5 2.4-6.5 4.4-6.7 4.4-.2 0 .5-2.8 1.6-6.3 8.8-28.7 4.7-53.8-10.2-62.9-5.6-3.4-10.2-4.1-16.1-2.3zm-35.7 381.9c-10.4 19.3-18 44.4-16.6 54.6l.6 4.5-2.1-3.8c-1.8-3.4-1.9-4.4-1-10.2 1.3-8.4 5.3-20.8 9.6-30.3 4.3-9.4 13.4-25.5 14.1-24.8.3.3-1.8 4.8-4.6 10zm-3.7 19.3c-.4 2.6-1.9 7.8-3.5 11.5-1.5 3.7-3.3 10.1-4 14.3-1.2 6.7-1.1 8.1.5 12.8 1.1 3.4 1.6 7.4 1.4 11.7l-.3 6.5-2.2-3.5c-1.9-2.9-2.3-4.9-2.3-12.1 0-4.8.7-12.5 1.5-17.2 2.8-16.3 11.1-38.5 8.9-24zm-44.4 16.3c0 1.1.4 2.8.9 3.8.4.9 2 6.6 3.5 12.7 2.6 10.8 3.3 12.6 11.4 27.5 4.5 8.3 6.7 11 11.2 13.6 2.1 1.3 3.1 2.8 3.5 5.4.7 3.9 2.9 12.5 4 15.2.5 1.3.2 1.8-1 1.8-2.4 0-12.8-3.1-14.2-4.2-.7-.5-1.6-.7-2.1-.4-1.6 1-3.2-1.9-4.3-8-1.3-7-3.2-10.9-6-12.4-3.7-2.1-12.9-4-18.7-4-3.1 0-6.2-.4-6.9-.8-.9-.6.2-4.5 4.1-14.7 2.9-7.7 7.1-19.3 9.2-25.8 3.6-11 5.4-14.2 5.4-9.7zm46.7 39.2c-.3.8-.6.5-.6-.6-.1-1.1.2-1.7.5-1.3.3.3.4 1.2.1 1.9zm4.3 6.1c0 1.8-.2 1.9-1 .7-1.3-2-1.3-4.3 0-3.5.6.3 1 1.6 1 2.8zm138.3 15.8c.7 6 .6 8.4-.9 12.7-1 2.9-2.1 5.5-2.5 5.7-1.2.8-2-12.8-.9-16.5.5-1.9 1-5 1-6.8 0-2.3.4-3.2 1.3-3 .7.3 1.5 3.5 2 7.9zm2.8-4.8c-.1.4-.1 2.6-.1 4.9 0 5.3-.5 4.7-1.4-1.5-.4-3.3-.2-4.7.5-4.5.6.2 1 .7 1 1.1zm-157.2 9.4c.6 2.1 1.1 4.7 1.1 5.8-.1 1.8-.2 1.7-1.4-.5-.8-1.4-1.7-4-2.1-5.8-1-4.6 1.2-4.1 2.4.5zm9 8.4c.7 3.4 1.5 6.7 1.8 7.5.7 1.9-4.1 1.9-6-.1-1.5-1.4-3.2-8.3-2.3-9.2.2-.3 1.1.8 2 2.4 2 3.8 2.1.5.1-4.4-2.1-4.9-1.9-5.6.9-3.8 1.7 1.2 2.7 3.2 3.5 7.6zm150.1-2.4c-.1 2.6-1.4 5.3-2 4.3-.9-1.5-.1-5 1.1-5 .5 0 .9.3.9.7zm-90.7 4c1.9.6 2.2 1.9.7 2.8-1.1.7-5.9-2.5-6-3.9 0-.4.8-.5 1.8-.1.9.4 2.5 1 3.5 1.2zm85.8 12.2c-2.1 13.5-2.1 13.5-3.8 11.8-1.3-1.3-1.4-2.5-.4-8.2 1.5-8.2 4.4-15.9 4.9-13.1.2 1.1-.1 5.4-.7 9.5zm-133.4-6.4c1.3 4.1-.2 4.9-1.7.9-1.2-3.1-1.3-4.4-.2-4.4.5 0 1.3 1.6 1.9 3.5zm-3.2 2.3c-.3.3-1.1 0-1.8-.7-.9-1-.8-1.1.6-.5 1 .3 1.5.9 1.2 1.2zm9.5.7c2.3 2.5 2.3 2.5.2 2.5-1.8 0-4.2-2.5-4.2-4.4 0-1.3 1.8-.4 4 1.9zm132.8 2.2c-.3 2.7-.1 10.4.4 17.2.5 6.8.6 12.6.4 12.8-.2.3-1.4-1.7-2.6-4.4-2-4.3-2.1-5.9-1.6-15.3.7-11.6 1.3-15 2.8-15 .6 0 .8 2 .6 4.7zm-90.3 312c.6 4.8 3.9 18.7 5.1 21.7.5 1.3-.5 1.6-7.1 1.5-6.7-.1-7.6-.3-7-1.7 2.8-6.8 5.6-16.5 6.2-20.9.3-2.9.9-5.3 1.3-5.3s1.1 2.1 1.5 4.7z"></path><path d="M278.5 414.5c-1.6.9-3.7 2.2-4.5 2.9-.8.8-3.3 1.9-5.5 2.6-2.2.7-6.2 2.1-9 3.2-2.7 1.1-8.3 3.3-12.4 4.9-8.6 3.3-17.3 8.8-19.7 12.5-1.6 2.3-5.7 5.5-18.3 14-2.5 1.7-6.6 5.7-9.1 8.8-2.5 3.1-6.6 8.1-9.1 11.1-3.7 4.4-4.8 6.5-5.3 10.6-.4 3.1-.3 5.6.4 6.4.7.9.6 2.1-.5 4.1-1.7 3.4-1.9 5.4-.5 5.4 1.5 0 1.2 2.1-.5 3.4-.8.6-1.8 2.6-2.1 4.4-.6 2.8-.4 3.4 1.5 3.9 2.2.6 2.8 2.7 1.1 3.8-1.5 1-1.2 7.1.5 8.5.8.7 1.5 2.5 1.5 4s.9 3.5 1.9 4.4c1.1 1 2.2 2.9 2.6 4.4.3 1.4 2 4.1 3.6 5.9 1.6 1.9 2.9 3.7 2.9 4.2 0 .4 1.1 1.3 2.4 1.9 1.3.6 3.2 2.4 4.2 4.1 1 1.7 3.2 3.7 4.9 4.5 1.7.8 4 2.5 5.1 3.7 2.5 2.8 14.7 8.4 20.3 9.3 9.4 1.5 17.2 6.9 21.1 14.7 1.7 3.2 3.2 5.9 3.4 5.9.2 0-.3-2.1-1.1-4.8-2.1-6.7-2.1-7.7.1-7.7 1.6 0 2 .8 2.3 5 .7 8.2.4 14.8-.7 15.5-1.1.7-1.3 6.4-.4 14.1.4 3.6.1 8.6-.9 13.5-3 15.3-3.7 22-2.8 27 .7 3.7.5 6.5-1.1 12.8-1.9 7.3-2 9-.9 16.7 2 15.1 2.1 14.2-8 45.6-3.9 12.2-4.9 16.7-4.9 22.2 0 3.8-.5 11.4-1 17-.8 7.3-.7 14.1.1 24.8.7 8.1 1.3 17 1.4 19.8.3 6.2 1.3 14.7 2.6 20.3.8 3.6.5 5.1-1.5 10-3.2 7.6-5.8 25.9-4.8 33.3.5 3.1 2 7.5 3.5 10 8.6 14 11.7 18.4 16.2 23.2 2.8 2.9 5.8 6.3 6.8 7.6 2.1 2.6 4.1 2.3 4.5-.5.2-1.3-2.1-5-6.2-10-3.8-4.6-6.6-8.9-6.6-10.2 0-1.3-.5-3.2-1.1-4.3-.6-1.1-.9-2.5-.6-3.2.2-.6 1.8 1.5 3.7 4.8 4.5 7.9 8.5 11.4 13.1 11.5 4.7 0 7.2-2.6 4.4-4.6-1-.8-2.8-1.4-4-1.4-1.2 0-3.1-1-4.2-2.3-2.8-2.9-5.7-13.1-4.9-17.1.3-1.7 1.2-6 1.8-9.5.7-3.5 1.9-6.6 2.6-6.9 1.3-.4 8.9 7.3 9.6 9.8.2.8.7 2.7 1 4.2.7 3.2 4.2 4.6 6.3 2.6 1.2-1.3.9-2.7-2.4-10.9-4.6-11.4-9.8-20.6-12.3-21.9-1.1-.6-3.2-2.6-4.7-4.6-3.2-4.2-3.3-6.1-3.3-41.9 0-16.8-.5-25.2-2-35.5-1.1-7.4-2-15-2-16.8 0-3.5 5.8-19.2 7.1-19.2 1.8 0 2.2 14.8.7 26.9l.2 6.6.2 6 1.3-7.5c1.4-8.7 4.1-19.9 4.9-20.8.7-.6 1 5.1.6 12.2-.1 3.3.1 4.6.9 4.2.6-.4 1.1-1.5 1.1-2.4.1-1.2.6-.8 1.6 1 .8 1.6 1.7 2.8 1.9 2.8.2 0 .1-2.2-.2-4.9-.6-5 .4-9.2 4-17.1 1.7-3.8 2.1-6.6 2.1-18 .1-7.4-.3-16.8-.8-20.8-1.1-9.9.9-9.5 2.2.5.6 4.3 1.4 15.4 1.8 24.6.3 9.3 1 18.1 1.4 19.5 1.2 4.2.3-41.7-.9-47.7-1.3-6.2-1.4-12.1-.3-12.1.4 0 1.8 3 3 6.7 1.3 3.8 7.7 17.7 14.3 31.1 11.4 23.3 14.1 30 20.8 51.5 5 16 4.3 20.2-7.5 43.4-8.2 16.2-10.4 22.9-10.4 31.3 0 3-.1 6.6-.3 7.9-.2 2.3.5 2.6 14.3 6.2 8 2.1 15.9 3.8 17.6 3.9 2.1 0 3.4.6 3.9 1.7 1.4 3.4 2.1 30.2.8 31.9-.6.9-.9 3.1-.6 5.2.7 4.7 3.9 12.2 5.1 12.2 2.2 0 12.9 25.7 11.4 27.2-.6.6-3.6.6-8-.1-10.1-1.6-14.3-1.4-20.4 1-8.5 3.2-17.7 10.9-28.7 23.8-14.2 16.8-24.9 25.8-39.1 33.1-6 3.1-17.3 3.9-23 1.6-6.4-2.6-16.4.3-21 6.1-3.2 4.1-2.3 10.5 3.5 24.3 6.2 14.8 14.6 39.8 18.5 54.7 3.5 13.5 7.1 20.3 13.5 25.1 5.5 4.2 16 7.2 24.9 7.2 3.8 0 12.1.9 18.5 1.9 17.9 3 23.6 3.4 27.6 2.1 1.9-.6 3.5-1.8 3.5-2.5 0-4.6-17.2-17.3-34.2-25.3-6.5-3-11.2-5.9-12.2-7.5-.9-1.3-2.1-6-2.6-10.4s-1.8-11.6-2.9-16.1c-1.2-4.4-2.1-10.3-2.1-13.2 0-2.8-.5-7-1.1-9.3-1.4-5.8 1.8-14.3 7.7-20.7 10.7-11.5 78.4-45.8 78.4-39.8 0 .7-.7 8.5-1.5 17.3-1.6 18.3-3.4 26-8.1 36.3-3.8 8.4-15.9 28.6-19 31.7-1.4 1.4-2.6 4.6-3.4 9.2-1.6 9-.3 13.9 4.4 15.8 6 2.5 40.9 4.4 93.1 5.1 55 .7 66.3.1 69.9-3.6 2-1.9 2-2 0-4.1-2.5-2.8-6.9-5-20.7-10.3-6.2-2.4-14.5-6-18.4-8-8.5-4.2-18.1-7-31.8-9.1-5.5-.8-17.3-2.9-26.3-4.7-14.4-2.8-16.5-3-18.8-1.7-4.1 2.1-5.7-.8-5.1-9.1.6-8.5 3.2-15.5 16.8-45.5 11.6-25.5 15.7-32.8 24.6-43.1 7.1-8.4 11.2-14.8 13.4-20.9 2.5-7.1 6.9-24.2 6.9-26.9.1-1.1.9-3.9 2-6.1 2-4.1 2.8-15.9 1.1-16.9-.4-.3-1.1-4.6-1.5-9.7-.4-5-.9-10.4-1.3-12l-.5-2.9h6.5c6.9 0 10.4-1.8 9.3-4.7-.4-.9.6-1.9 3-2.9 1.9-.8 3.7-2.1 4-2.8.5-1.3-1.4-10.8-4.1-20.6-1.1-4.1-1.6-11.8-1.8-29.5-.3-21-.6-25-2.5-32-2.6-9.3-8.5-21.9-13.5-28.9-3.9-5.4-19.7-23.4-29.9-34.1-6.6-7-6.8-7.2-10.2-19-2.6-9.3-3.3-13.2-2.9-17.1.5-4.8.3-5.4-2.9-9-3.9-4.4-10.8-21.8-8-20.1.4.3 6.8 1 14.2 1.7 7.4.6 19.3 2.3 26.4 3.6 10.5 2.1 13.7 2.3 17.5 1.5 10.6-2.4 38.7-12.3 48-17 5.6-2.8 10.8-5.1 11.6-5.1 1.8 0 16.7-7.1 17.7-8.5.5-.6 1.9-.5 4 .4 8.3 3.4 10.3 3.5 22 1.8 6.2-.9 12.4-2 13.8-2.3 1.9-.4 3.7.4 7.3 3.2 2.6 2 4.7 4.4 4.7 5.3 0 1 .5 2.2 1.1 2.8.8.8.8 1.7 0 3.1-2.5 4.6.5 7.8 4.1 4.5 3.4-3 3.9-4.8 2.4-8.9-1.2-3.7-1.2-4 1.6-6.7 3.5-3.5 3.5-4.8.1-11.3-2.5-4.8-3.1-5.3-9.2-7.4-3.7-1.3-7-2.6-7.4-3-.5-.4 1.2-1.6 3.7-2.5 3.7-1.4 6.4-1.7 13.1-1.2 11.5.8 15.7.1 15.3-2.7-.3-1.9-1.2-2.2-9.7-3-6.5-.6-12.2-.5-18.5.4-5 .7-13.4 1.5-18.5 1.7-8.1.4-10 .2-13-1.5-4.9-2.7-13.4-1.7-16.5 1.9-2.6 3-7.1 5.9-9 5.9-1.8 0-17.8 7.9-18.6 9.1-.3.5-4.8 2.2-10 3.8-14.8 4.5-28.8 9.9-36.8 14.2-8.1 4.3-10.8 4.7-17.3 2.3-2.4-.8-10.9-3.1-18.9-5-8-2-19.6-5.3-25.9-7.5-6.2-2.1-12.1-3.9-13-3.9-1.2 0-2.3-2.2-4.1-7.8-3.4-10.5-3.3-10.2-1.6-10.2.9 0 1.6-.3 1.6-.8 0-.4.3-4.6.6-9.4.4-6.7.1-9.4-1.1-11.7-1.4-2.8-1.4-3.5.4-8.7 1.9-5.8 6.2-10.3 11.6-12.4 1.4-.5 2.4-1.4 2-1.9-.3-.5 1.5-6.9 4-14.2 4.8-14 5.4-18.8 3-24.5-1.5-3.5-10-15.3-12.2-16.7-1.3-.8-15.6-27.7-15-28.3.2-.2 2.4 1.1 4.8 2.9 2.4 1.9 5.5 3.7 6.9 4.2 1.4.4 4 2.3 5.8 4.4 3.2 3.5 3.3 3.5 1.8.6-1.4-3-9.8-11.3-14.9-14.7-1.4-1-3.3-3.9-4.2-6.5-2.9-8.1-3.4-8.7-16-21.6-14-14.3-18.1-16.9-27.5-17.4-26-1.4-33.5-1.3-36.5.2zm77.1 35.7c1.3 2.6 2 4.8 1.5 4.8-1 0-9.1-11.2-9.1-12.5 0-1.9 5.5 3.6 7.6 7.7zm-3.9 135.8c-.2 16.4-.4 18.9-1.7 18.4-.8-.3-4.8-1.5-8.9-2.7-8-2.4-11.1-5.4-11.1-10.8 0-3.7 5.3-11.1 11.3-15.7 2.9-2.2 6.1-4.9 7.2-6 1.1-1.2 2.3-2.1 2.7-2.1.3-.1.6 8.5.5 18.9zm-66.5-6.9c9.2 2 12.1 4 17.7 13 2.9 4.5 5.1 8.9 4.9 9.7-.4 2.1-6.6 5.6-14.5 8.3-7.3 2.4-12.4 7.5-15.1 15.1-1.9 5.5-3.2 6.2-3.2 1.8 0-1.6-1-5-2.2-7.6-2.1-4.1-2.1-4.7-.7-5.7 1.8-1.4 2.5-9.2.9-10.2-1.3-.8-1.3-8.1.1-10.6 1-1.9 1.1-1.9 3.1.3l2 2.3-1.6-2.7c-1.3-2.2-1.4-3.2-.4-5.3 1.5-3.3 2.3-3.2 3.8.5.7 1.6 1.9 3.5 2.6 4.1 1.2 1 1.3.8.5-1.3-.5-1.4-1.9-4.3-3-6.4-2.3-4.2-2.7-6.4-1.1-6.4.5 0 3.3.5 6.2 1.1zm284.7 28c3.2 1.1 6.7 6.1 5.6 8-.4.5-2.1-.3-4.1-2.1-1.9-1.6-3.9-3-4.4-3-.5 0-1.4-.9-2-2-1.3-2.4 0-2.6 4.9-.9zm-211.9 31.5c1.5 3.7 1.2 4.2-1 1.5-2.2-2.6-2.6-4.1-1-4.1.6 0 1.5 1.2 2 2.6zm11.5 3.1c1.8 4.2 1.8 4.3.5 4.3-1.1 0-2.5-2.5-3.4-6.3-.9-3.9 1-2.6 2.9 2zm9.8-1.5c.3.7 1.3 3.1 2.2 5.3l1.6 4-2-2.5c-2.4-2.9-4.4-8-3.2-8 .5 0 1.1.6 1.4 1.2zm-15.2 8.3c.6 1.1-.1.6-1.5-1-1.4-1.7-2.6-3.5-2.6-4 .1-1.1 2.7 2 4.1 5zm9.9 12.7c0 1.4-1.8.9-2.4-.8-1.1-2.8-.6-3.9.9-2 .8 1.1 1.5 2.3 1.5 2.8zm-97.5 46c-.4 2.4-1.1 7.7-1.5 11.8-1 9-2.5 16.8-3.3 17.7-.4.3-.5-5-.3-11.8.2-10.2.7-13.2 2.5-17.2 1.2-2.6 2.5-4.7 2.8-4.7.3 0 .2 1.9-.2 4.2zm-.8 36c-.3.8-.6.5-.6-.6-.1-1.1.2-1.7.5-1.3.3.3.4 1.2.1 1.9z"></path><path d="M282.3 749.5c0 2.2.2 3 .4 1.7.2-1.2.2-3 0-4-.3-.9-.5.1-.4 2.3z"></path></svg><svg viewBox="0 0 1280 430" id="separatop"><path d="M219.4 1.5c-9.5 1.7-13.4 3-22.9 7.8-19.3 9.6-32.5 30.9-32.5 52.7 0 17.4 10 37.5 22.5 45.5 2.5 1.5 4.4 2.9 4.2 3.1-.1.2-4.2-.3-8.9-1.1-43-6.9-90.7-2.2-121.5 12-38.2 17.7-63.7 58.2-59.3 94.2 4.5 36.4 32.3 60.9 78.3 68.9 7.1 1.3 13 1.5 25.7 1.1 17.9-.6 27.2-2.3 42-7.6 4.6-1.6 8.5-2.9 8.6-2.8 1.6 3 8.7 11.1 13.2 15.1 23.1 20.6 51.5 31 80.3 29.2 35.2-2.1 65.1-13.3 92.6-34.5 20.5-15.8 53.1-48.7 80.8-81.6 56.8-67.2 91.2-98.4 119.3-107.9 15.6-5.3 28.7-5.6 43-1.1 18 5.8 30.1 15.6 37.4 30.2 3.6 7.2 4.1 9.2 4.5 17 .7 11.2-.8 18.2-5.8 28.3-5.1 10.1-13.8 18.4-25.3 24.1-10.3 5-23.3 8.3-29.5 7.5-24.5-3.2-33.2-2.8-47.8 2-15.7 5.3-36.4 17.5-53.5 31.6-4.2 3.5-10.4 8.5-13.8 11.3-6.3 5.1-65 64.2-65 65.5 0 4.6 54.9 60.5 75 76.4 22.3 17.7 34.9 25.7 50.2 32 13.5 5.5 22 7 37.2 6.3 15.1-.7 21.8-2.2 33.6-7.9 20-9.6 34-31.5 34-53.3 0-19.6-12-40.6-27.9-48.9l-6.4-3.4 6.1-3.1c8.2-4.1 12.2-7.9 18.2-16.8 6.9-10.3 9.4-18.9 9.5-32.3 0-12.4-2.6-21.7-8.5-30.9-4.9-7.6-14.1-16.5-21.3-20.6l-5.9-3.2 6.8-.8c8.6-.9 18-3.8 26.5-8.1 11.4-5.7 21.7-19.3 25.3-33.4 1.3-5.2 1.4-5.3 2-2.5 2.6 11.9 6.3 19.7 13.5 28.3 8 9.6 23.5 16.9 38.4 17.9 4.2.3 7.7.9 7.7 1.3 0 .3-2.3 1.7-5.2 3.1-7 3.2-19.4 15.6-23.5 23.4-5.2 9.9-6.7 16.6-6.7 29 .1 12.5 2.1 19.9 7.9 29.6 4.5 7.3 13.7 16 20.3 19 2.8 1.3 5.2 2.6 5.2 2.9 0 .3-2.4 1.6-5.2 2.9-6.6 3-15.8 11.7-20.3 19-5.8 9.7-7.8 17.1-7.9 29.6-.1 17.9 4.7 29.8 17 42.2 11.9 11.9 28.4 18.7 48.6 20 36.2 2.3 71.9-18.7 128-75.3 21.8-22 35.8-37.4 35.8-39.5 0-.9-32.7-34.8-48.4-50.2-6.7-6.5-18.8-17.3-27.1-24-41.1-33-66.9-42.8-98.8-37.2-12.1 2.1-21.7.1-37-7.8-18.7-9.6-29.7-27.2-29.7-47.7 0-17.7 9.6-34 25.2-43.1 27.6-16.2 54.2-14.3 84.3 6 22 14.7 53.4 46 91 90.6 26.6 31.6 63.4 69.4 81.5 83.8 27.7 22.2 57 33.8 92.1 36.6 32.7 2.7 62.4-8 85.7-30.7 4.3-4.2 8.8-9 9.9-10.5l1.9-2.9 8.8 3.1c25.8 9.1 56.4 10.5 80.4 3.5 32.9-9.5 52.5-25.3 61.3-49.4 7.2-19.9 5.5-40.9-5.2-62.4-21.8-43.9-69.6-65.7-138.9-63.2-10.2.3-23.9 1.4-30.4 2.4-10.1 1.5-11.5 1.6-9.5.3 1.3-.8 5.1-4.2 8.5-7.6 17-17 21.1-44 10.2-66.3-2.3-4.6-5.8-9.3-11.4-14.9-6.6-6.8-9.5-9-16.5-12.2-12.1-5.7-18.6-7.2-33.5-7.8-15.3-.6-23.2.7-37.2 6.3-22.7 9.2-51.2 30.4-81.7 60.9-26.1 26-43.5 44-43.5 45 0 2 13.5 17 34.9 38.8 57.2 58 95.7 80 132.3 75.7 5.1-.6 10.5-1.3 11.9-1.6 2.4-.5 2.7-.3 3.3 3.7 1.1 7 6.2 15.2 14.4 23.2 8.3 7.9 17.1 13.6 29.6 18.8l7.9 3.3-7.2 6.8c-31.1 29.1-74 36.1-117.6 19.1-34.8-13.6-61.7-34.6-115-89.9-64.2-66.5-80.4-81.8-105.5-99.5-22.7-16.1-43.7-23.9-64.2-23.9-33.8.1-61.2 18.2-68.9 45.5-1.6 5.7-1.7 5.8-2.4 3-3.3-14.4-8.8-23.9-19.1-33.3-11.1-10.2-27.1-16.4-46.4-17.8-24.5-1.8-52.9 9.8-82 33.6-4.1 3.4-10 7.9-13 10.2-3 2.2-18.5 17.4-34.5 33.7-82.5 84.1-101.1 101.7-125.2 117.9-22.3 15-50.6 25.3-73.4 26.8-24.2 1.6-50.2-5.8-68.9-19.6-6.6-4.9-16.8-14.7-15.9-15.3.2-.2 5.6-2.8 11.9-5.9 6.3-3.1 14.3-7.6 17.7-10.1 10.9-8.1 19.8-20.7 21-29.7.4-3.1.9-3.9 2.2-3.6.9.3 4.5 1 8.1 1.6 39 6.1 76.3-14.3 136.1-74.6 22.5-22.7 35.9-37.5 35.9-39.6 0-.4-13.6-14.6-30.2-31.4-52.2-52.9-82.1-73.9-113.6-80-8.9-1.7-21.2-1.7-30.8.1zm31.8 3.9c28.3 5.4 57 27.6 104.3 80.6 6.6 7.4 14.9 16.8 18.3 20.7l6.4 7.3-9.4 10.7c-29.9 34.5-59.5 64.5-75.5 76.4-29.3 21.8-54.9 27.9-78.8 18.7-3.2-1.2-5.7-2.8-6-3.9-.4-1-2.4-4.2-4.7-7-4.1-5.2-11.9-9.9-16.6-9.9-1.6 0-3.1-1.4-5.3-4.8-12.8-20.2-6.5-50.8 13.6-65.9 11.6-8.7 14.2-9.6 30-9.9 17.2-.3 32.4-2.8 30.3-5-1.6-1.5-18.8-3.7-30.8-3.8-12.3-.2-13.9-.5-18.5-2.8-16.1-8.3-26.1-20.7-30-37-6.4-27.3 10.6-53 41.5-62.7 11.1-3.4 19.6-3.9 31.2-1.7zm804.3 3.1c19.4 4.5 35.4 16.7 42.7 32.2 10.4 22.2 2.2 49.8-19.1 64.2-10.3 7-11.4 7.3-23.1 7.2-9.6-.2-31 2.2-33.3 3.6-3.7 2.3 14.1 5.3 31.2 5.3 11.9 0 12.5.1 18.1 3.1 13.9 7.4 23.6 18.2 28.1 31.6 3.3 9.6 3.3 24.2-.1 32.8-3.7 9.5-6.6 13.5-9.8 13.5-6.4.1-15.6 7-19.7 15-2.9 5.6-15.6 9.5-30.5 9.3-11.1-.2-23.1-3.3-33.8-8.7-22.9-11.7-52.3-38.8-94.6-87.5l-11.6-13.3 4.3-5.1c2.3-2.8 9.7-11.3 16.5-18.9 56.4-63.5 87.3-85.6 119.7-85.7 5-.1 11.7.6 15 1.4zm-862.7 104.1c2.8.4 5.2 1 5.2 1.3 0 .3-2.7 1.9-6.1 3.5-15 7.2-26.3 25.5-27.6 44.9-.7 10.7 1.5 20.9 6.6 30.9l3.9 7.8-4.9 3.6c-10.1 7.4-17.6 18.7-20 30.2-1.6 8.1-.7 23.4 2 30.2 1.1 3 1.7 5.7 1.3 6.1-1.3 1.4-18.1 5.8-28.1 7.4-7.5 1.3-14.2 1.6-26.3 1.3-15.1-.4-17-.6-25.5-3.6-16.3-5.6-24.9-10.5-33.9-19.6-13.5-13.5-18.8-26.5-18.8-46.6 0-13.1 1.6-20.6 6.8-31.7 18-38 58.7-61.1 117.1-66.3 10.3-.9 39-.5 48.3.6zm59.7 1.4c.4.6-3.2 1-9.9 1-6.4 0-10.6-.4-10.6-1s4-1 9.9-1c5.6 0 10.3.4 10.6 1zm898.5 2.5c48.7 7.6 84 29.4 100.3 62 6.2 12.4 8.2 20.5 8.1 33.5 0 13.4-1.7 20.9-7.1 32-4.1 8.3-15.4 20.6-23.3 25.3-6.9 4-23.8 10.5-31.9 12.2-8.4 1.7-26.4 2-37.8.4-7.6-1-29.8-6.4-32-7.7-.8-.5-.5-2.5.9-6.7 2.6-7.5 3.5-22.6 1.8-30.4-2.5-11.6-11-23.6-22.3-31.7l-2.9-2 3.1-5c6.9-10.7 9.6-27.7 6.7-41.4-3.4-16.1-13.9-30.7-26.5-37-3.4-1.7-6.1-3.4-5.8-3.6 2.7-2.7 51.5-2.6 68.7.1zm-103.6-.4c1.9.1 1.8.2-.4.9-3.3 1-13.8 1.2-18.1.3l-3.4-.8 4-.6c2.2-.4 6.7-.5 9.9-.3s6.8.4 8 .5zm-491.9 89c2.8.6 9.7 3.4 15.5 6.1 8.4 4.1 11.7 6.3 16.6 11.3 12.2 12.5 17.3 28.4 14.2 44.2-2.9 14.6-9.8 25.7-21 33.6-11.5 8.1-12.4 8.4-30.3 9-17.3.5-28.8 2.2-28.2 4.1.6 1.9 12.5 3.7 28.5 4.2 8.4.2 16.4.9 17.9 1.5 4.7 1.8 15.9 9.7 20 14.2 22.6 24.5 17.1 62.2-11.3 78.8-14.1 8.2-22.9 10.8-36.5 10.9-33.6.1-67-24.6-128.2-94.9l-12.6-14.4 1.9-2.6c1-1.4 6-7.3 11.1-13.1 69.1-78.9 103.2-101.2 142.4-92.9zm-358.7.8c4.1 2.1 8.9 6.7 7.9 7.7-.7.7-8.4-4.5-11.1-7.5-2.4-2.6-1.6-2.7 3.2-.2zm-12.7 4.5c5.4 4.8 13.4 9.6 21.3 12.6 2.7 1 2.8 1.2 2.1 5.7-1.4 9.2-6.7 17.1-16.5 24.5-6.3 4.8-29 16.8-31.8 16.8-.7 0-2.3-2.1-3.5-4.8-1.8-3.9-2.2-6.5-2.2-16.2 0-13.6 1.8-20.3 8-29.4 3.8-5.7 13.3-14.6 15.6-14.6.6 0 3.8 2.4 7 5.4zm575.9-.8c4.7 1.4 11 3.9 14 5.4 15.5 7.9 37.8 26.4 61.7 51.3 13.3 13.9 43.8 48.5 43.8 49.7 0 2.1-33.8 39.4-53.5 59-28.4 28.3-44.9 40.3-64.6 47-9 3-11 3.3-21.9 3.4-10.6.1-12.9-.2-20-2.7-29.5-10.1-45.6-32.8-41.7-58.4 2.8-17.7 12.9-31.5 29.7-40.5 5.9-3.1 6.3-3.2 20-3.4 7.7-.1 17.5-.9 21.8-1.7 11.8-2.2 11.8-3.2 0-5.4-4.3-.8-14.1-1.6-21.8-1.7-13.7-.3-14.3-.4-20.1-3.5-16.6-8.8-26.6-22.4-29.5-40-4.3-25.8 12.9-49.8 42.1-59 9.3-2.9 10.4-3 21.5-2.6 7.3.3 12.3 1.1 18.5 3.1zm325.5.3c-3.6 3.4-10.5 7.6-10.5 6.4 0-1.1 5.8-6.6 8.5-8.1 3.9-2.2 5-1.3 2 1.7zm21.1-.1c13.2 9.7 20.4 24.2 20.4 41.3 0 7.5-2.9 20.1-4.9 21.4-.5.3-4.6-1.1-9-3-24.2-10.3-38.7-24.1-40.7-38.5l-.6-4.5 3.8-1.4c6.9-2.4 15.8-7.9 20.9-12.9 2.8-2.7 5.3-4.9 5.6-5 .3-.1 2.4 1.1 4.5 2.6zm-559.6 103.1c3.9 1.1-9 2.2-15.9 1.4-4.5-.5-5.1-.8-3.1-1.4 3.2-.9 15.8-.9 19 0zm206 3.1c0 .6-4.2 1-10.5 1s-10.5-.4-10.5-1 4.2-1 10.5-1 10.5.4 10.5 1z" fill="#fff"></path></svg></svg>