<svg version="1.0" xmlns="http://www.w3.org/2000/svg" viewBox="0 0 1280 1072"><path d="M822.8 1.6c-6.3 1.9-15.1 10.1-18.8 17.5-9.6 19-11.1 47.5-5 95.8 4.9 38 19.7 107.1 32.7 152.4 1.3 4.9 2.3 9 2.1 9.2-.1.2-22.4-.1-49.3-.5-291.5-5.3-583.9-5.9-681.5-1.5-56.6 2.6-69.7 4.9-76.3 13.7-12.8 17-20 62.9-24.9 156.8-1.7 32.7-1.7 151.5 0 184 4.7 88.7 11.7 135.1 23 152 8 11.9 19.3 14.1 90.6 17 89.2 3.8 409.6 2.8 670.1-2 26.4-.4 48.1-.7 48.2-.6.2.2-1.3 5.9-3.2 12.9-10.6 39-22.1 89.2-27.4 120.7-12.6 74.6-10.2 115.8 7.7 133.8 13.7 13.8 33.5 11.8 68.9-6.8 64.3-33.8 158.9-114.7 229-196 84-97.5 134.7-191 148.9-274.9 6.8-40.1 5.3-79.8-4.6-120.9-24.7-102.4-104.5-222.2-221.5-332.6-72.9-68.8-148.3-121.1-187.3-130-8.6-1.9-15.1-1.9-21.4 0z"/></svg>