<svg version="1.0" xmlns="http://www.w3.org/2000/svg" viewBox="0 0 1155 1280"><path d="M780.8 52.5c-6.6 2.1-13 8.9-17.8 18.8-4.7 9.8-7.5 18.2-9.2 27.1-.7 3.6-1.6 6.5-1.9 6.4-.4-.2-5-6.2-10.2-13.3-16.7-22.9-30.4-33.2-45.8-34.3-10.7-.7-14.9 2.1-14.9 10.1 0 4.3 9 30.7 13.4 39.5 2 3.9 3.6 7.3 3.6 7.6 0 .2-3.1-.7-6.8-2-3.7-1.3-11.1-3-16.3-3.8-28.9-4.6-52.9-2-55.9 6-2.5 6.5 6.8 16.8 22.3 24.4 10 4.9 13.2 5.9 38.5 11.6 6.7 1.5 12.2 3 12.2 3.4 0 .4-4.8 1-10.7 1.3-25.5 1.4-52.5 10.5-61.8 20.8-7.6 8.5-2.2 14.7 17.2 19.6 9.9 2.5 42.3 2.3 58.8-.5 6.6-1 12.2-1.8 12.4-1.6.2.2-3.9 4.8-9.1 10.3-11.5 11.9-15.1 18.4-15.6 28.2-.5 7.9.9 12.7 4.4 16 2.2 2 3.5 2.4 8.5 2.3 5.4-.1 7.8-1 25.5-9.8 10.8-5.3 20.9-10.5 22.4-11.6 1.5-1.1 3-1.7 3.2-1.4.3.2-1.5 6-3.9 12.7-6.8 18.9-17.5 50.4-23.7 69.7-7.3 23-12.2 42.4-19.2 76.5-3.1 15.4-5.9 29-6.1 30.1-.4 1.9-.9 2-3.8 1.4-4.2-.9-7.6.6-9.4 4.4-.7 1.5-2.2 3.7-3.2 4.7s-1.9 2.7-1.9 3.6c0 .9-.5 3.1-1.2 4.9-1.6 4.6.3 10.5 5.2 15.8l3.9 4.3-3 9.4c-1.6 5.2-6.9 19.9-11.7 32.8l-8.7 23.3-5.2-.5c-4.5-.5-5.5-.3-6.3 1.4-.8 1.4-.6 2.7.5 4.9 1.5 2.8 1.4 3-.4 3-3.2 0-5.1 1.1-5.1 3 0 3.5 1.2 5 5.1 6 5.6 1.5 4.8 3-1.5 3-6.7 0-8.9 1.9-6 5.1 1 1.2 3.2 2.8 4.7 3.6 2.1 1 2.7 1.9 2.2 3.1-.4.9-5.8 16.5-12 34.7-21.2 62.1-23.9 68.3-57.5 135.5-37.5 75-49.9 102.3-78.5 174.1-13.7 34.5-13.8 35-4.2 37.3 2.2.5 3.2.2 4.8-1.6 1.1-1.3 7.8-16.8 14.9-34.5 26.8-66.9 40.5-97.2 78.4-173.3 32.9-66 35.8-72.9 55.6-131.5 6.5-19.3 12.1-35.8 12.5-36.8.9-2.2 2.1-2.2 5.5.3 1.6 1.1 6.1 3.4 10.1 5.1 6.6 2.8 8.3 3.1 17.1 3 5.4 0 9.8.3 9.8.7 0 .5 1.9 1.3 4.3 1.9 2.3.6 6.7 1.8 9.7 2.7 3 .9 7.1 1.9 9 2.2 3.2.5 21.2 7.7 23.5 9.4.6.4 2.8 1.1 5 1.5 2.2.5 4.7 1 5.5 1.2.8.1 6.5 1 12.5 1.9 6.1.9 11.1 1.7 11.2 1.9.2.1-.3 2.4-1 5.1-.9 3.5-3.1 7.1-7.6 12.4-7.1 8.5-14.4 21.4-19.2 33.9-1.8 4.7-3.8 8.9-4.4 9.3-.5.4-1.1 5-1.2 10.5l-.1 9.8-7.4 15c-9.4 19.2-11.9 28-12.6 45-.3 8.8-1 13.7-1.9 15.2-.8 1.2-1.5 4.6-1.5 7.5.1 10.3 2.1 32.4 3.8 39.8 2.4 11 2.2 27.2-.4 40-3.3 15.9-4.2 27.1-4.2 54.5 0 28.7.8 35.5 5.2 44.3 3.3 6.6 7.1 10.2 14.8 14.3 3.8 2 5.9 2.4 14 2.4 8.6 0 10.7-.4 21.5-4.2 12.5-4.3 16.2-4.8 32.3-4.5 10.6.2 11 .5 17.1 10.6 5.6 9.3 8.1 17.8 9.6 32.3.8 7.3 1.9 16.1 2.5 19.5.6 3.5 1.2 18.7 1.3 33.9.2 25.7.3 27.8 2.1 29.8 1.1 1.2 2.8 2.1 3.8 2.1 1.4 0 1.8.5 1.4 1.8-.4 1-.2 4.7.4 8.3 2.9 19.2 3.4 28.6 2.1 41.5-.7 7.1-1.5 13.6-1.7 14.5-.2.8-2.1 2.5-4.2 3.7-6.8 3.8-14.1 16.2-14.2 24 0 3.2.6 4.9 2.5 6.7 3.4 3.5 9.6 3.3 22.5-.9 5.8-1.8 13.1-4.1 16.3-5 12-3.6 18.1-12.9 19.7-30.4.6-5.9 1.5-13 2-15.7.6-2.8 1.4-11.8 1.9-20.1.6-8.8 1.8-18.3 3-23 3.7-14.4 5.3-25.8 4.1-29-1.6-4.2-4.9-7.4-9.6-9.4-4.1-1.8-4.2-1.8-4.7-8.2-2-24.6-3-35.1-4.9-48.3-1.1-8.3-2.3-16.6-2.6-18.5l-.4-3.5 2.7 2.5c1.5 1.4 7.4 8.1 13 15 18.7 22.7 22.6 25.3 38.5 25.3 5.5 0 12.4-.7 16.5-1.7 3.9-1 12.6-2.4 19.5-3.2 6.9-.8 14.2-2 16.2-2.6 4.2-1.2 7.3-4.1 6.3-5.8-1.4-2.3-12.6-7-26.5-11-8-2.3-16.8-4.9-19.6-5.7-5-1.5-5.3-1.7-7.8-7.7-1.4-3.3-3.9-10-5.6-14.7-3.2-8.8-7-15.5-17.5-30.4-3.3-4.7-8.2-11.8-11-15.7-11.1-16-25.4-18.3-33.3-5.3-1.5 2.4-3.1 4.5-3.5 4.5-.5 0-2.4.7-4.3 1.6-1.9.9-3.6 1.5-3.8 1.3-.3-.2.5-5.1 1.6-10.9 1.7-8.9 2-14.1 1.9-34.7l-.2-24.2 3.5-9.4c5.9-15.5 6.8-21.1 6.8-41.7.1-23.4 0-24.8-1.5-25.7-.7-.4-2-2-3-3.5-.9-1.5-2.7-3-4-3.4-1.7-.4-4-4.3-10.1-17-8.1-17-9.4-21.6-8.2-29.8.7-4.3.9-4.6 3.2-4 5.1 1.3 7.3-3.2 11.5-23.6 3.9-19.2 6.3-25.8 18.1-49.7l10-20.1.5-9.6c.3-5.3 1-9.6 1.4-9.6.5 0 .9.4.9.9s.5 4.4 1.1 8.6c1 7.6 1 8-2.7 19.5-.3.8.7-.6 2.1-3.2 2.8-5.2 5.6-14.8 5.4-18.8l-.1-2.5-.7 2.5c-.7 2.3-.8 2.2-1.2-1.2-.3-2-.2-8.6.2-14.5s1.1-18.7 1.5-28.4c.7-16.5.8-17.6 2.8-18.5 1.8-.8 3.7-3.2 7.2-9 1.1-1.8 1.7-1.6 11.5 3.3 12.3 6.2 19.8 8.4 29.6 8.4 15.6.2 17.6-2.8 6.2-8.8-20.1-10.7-38.6-24.2-37.4-27.2 3.4-8.3 10-30.5 12.1-40.8 2.3-11.2 2.5-14.4 2.1-25.8-.8-18.9-4.3-28-16.7-42.2l-6.7-7.8-.6-12.6c-.4-6.9-1.8-21.3-3.3-31.9-4.1-31-4.8-31.3-13-4.7-1.5 5.1-4.4 11.4-6.8 15l-4.1 6.2-.7-9.5c-.8-9.8-.6-14.5 1.4-28.7 1.1-8.5.5-11.3-2.7-11.3-4.8 0-13.3 14-18 29.5-5.8 19.5-11 23.6-34.3 27.6-6.2 1.1-14.1 3-17.5 4.3-3.4 1.3-7.8 2.9-9.7 3.6-1.9.7-4.2 1.7-5 2.1-3.4 2-14.3 6.9-15.2 6.9-.6 0-2.3 1-3.8 2.2-1.6 1.3-5.7 3.9-9.1 5.8-8 4.5-22 17.6-24.3 22.9-1.8 3.9-1.8 4.1.3 7.6l2.1 3.6-6.1 10.6c-8.3 14.4-15.2 29-18.7 39.6l-2.8 8.7-3.7-7c-2-3.9-3.7-7.6-3.7-8.3 0-.7-1.3-4.4-2.9-8.2-1.6-3.9-3.2-8.6-3.5-10.6-.6-3.1-.3-3.9 1.9-5.3 2-1.3 2.3-2.2 1.8-4.6-.4-2.3-.2-3 1-3 2.1 0 3.1-1.8 1.9-3.3-.6-.7-1.2-2.3-1.4-3.7-.2-1.7-1-2.6-2.5-2.8-1.3-.2-2.3-.6-2.3-1 0-2.9 12.9-64 16.2-76.7 2.3-8.8 9.3-31.1 15.6-49.5 6.2-18.4 13.4-39.7 16-47.3 2.6-7.5 4.9-13.7 5.2-13.7.3 0 1.4 1.9 2.4 4.1 2.5 5.2 24.4 28.9 30.4 32.9 8.8 5.8 16.2 5 23-2.4 9.6-10.4 9.8-16.5.8-38.1-3.6-8.9-6.6-16.4-6.6-16.8 0-1 20.4 6.5 42.5 15.7 33.8 14.1 43.8 16.4 49.2 11 2.3-2.3 2.5-3.1 2-8-.8-7.5-5.9-16.5-14.2-24.9-7-7.1-19.6-15.8-24.8-17-5.7-1.5-3.5-2.5 5.3-2.5 12.5 0 36.5-1.8 47.9-3.6 14.8-2.3 22.1-6.5 20.7-11.8-.9-3.8-6.4-8.7-14.2-12.8-14.7-7.7-31.5-11-55.6-11.2-9.3-.1-16.8-.2-16.8-.3 0-.1 4.2-2.4 9.4-5.2 21.4-11.5 37.8-25.1 40.6-33.6 1.7-5.1-.1-9-5.4-11.8-3.3-1.7-6.2-2.2-15.6-2.5-9.8-.3-13 0-21.2 2.2-16.3 4.2-34 12.5-49.6 23.2-3.5 2.4-6.5 4.4-6.7 4.4-.2 0 .5-2.8 1.6-6.3 8.8-28.7 4.7-53.8-10.2-62.9-5.6-3.4-10.2-4.1-16.1-2.3zm-35.7 381.9c-10.4 19.3-18 44.4-16.6 54.6l.6 4.5-2.1-3.8c-1.8-3.4-1.9-4.4-1-10.2 1.3-8.4 5.3-20.8 9.6-30.3 4.3-9.4 13.4-25.5 14.1-24.8.3.3-1.8 4.8-4.6 10zm-3.7 19.3c-.4 2.6-1.9 7.8-3.5 11.5-1.5 3.7-3.3 10.1-4 14.3-1.2 6.7-1.1 8.1.5 12.8 1.1 3.4 1.6 7.4 1.4 11.7l-.3 6.5-2.2-3.5c-1.9-2.9-2.3-4.9-2.3-12.1 0-4.8.7-12.5 1.5-17.2 2.8-16.3 11.1-38.5 8.9-24zm-44.4 16.3c0 1.1.4 2.8.9 3.8.4.9 2 6.6 3.5 12.7 2.6 10.8 3.3 12.6 11.4 27.5 4.5 8.3 6.7 11 11.2 13.6 2.1 1.3 3.1 2.8 3.5 5.4.7 3.9 2.9 12.5 4 15.2.5 1.3.2 1.8-1 1.8-2.4 0-12.8-3.1-14.2-4.2-.7-.5-1.6-.7-2.1-.4-1.6 1-3.2-1.9-4.3-8-1.3-7-3.2-10.9-6-12.4-3.7-2.1-12.9-4-18.7-4-3.1 0-6.2-.4-6.9-.8-.9-.6.2-4.5 4.1-14.7 2.9-7.7 7.1-19.3 9.2-25.8 3.6-11 5.4-14.2 5.4-9.7zm46.7 39.2c-.3.8-.6.5-.6-.6-.1-1.1.2-1.7.5-1.3.3.3.4 1.2.1 1.9zm4.3 6.1c0 1.8-.2 1.9-1 .7-1.3-2-1.3-4.3 0-3.5.6.3 1 1.6 1 2.8zm138.3 15.8c.7 6 .6 8.4-.9 12.7-1 2.9-2.1 5.5-2.5 5.7-1.2.8-2-12.8-.9-16.5.5-1.9 1-5 1-6.8 0-2.3.4-3.2 1.3-3 .7.3 1.5 3.5 2 7.9zm2.8-4.8c-.1.4-.1 2.6-.1 4.9 0 5.3-.5 4.7-1.4-1.5-.4-3.3-.2-4.7.5-4.5.6.2 1 .7 1 1.1zm-157.2 9.4c.6 2.1 1.1 4.7 1.1 5.8-.1 1.8-.2 1.7-1.4-.5-.8-1.4-1.7-4-2.1-5.8-1-4.6 1.2-4.1 2.4.5zm9 8.4c.7 3.4 1.5 6.7 1.8 7.5.7 1.9-4.1 1.9-6-.1-1.5-1.4-3.2-8.3-2.3-9.2.2-.3 1.1.8 2 2.4 2 3.8 2.1.5.1-4.4-2.1-4.9-1.9-5.6.9-3.8 1.7 1.2 2.7 3.2 3.5 7.6zm150.1-2.4c-.1 2.6-1.4 5.3-2 4.3-.9-1.5-.1-5 1.1-5 .5 0 .9.3.9.7zm-90.7 4c1.9.6 2.2 1.9.7 2.8-1.1.7-5.9-2.5-6-3.9 0-.4.8-.5 1.8-.1.9.4 2.5 1 3.5 1.2zm85.8 12.2c-2.1 13.5-2.1 13.5-3.8 11.8-1.3-1.3-1.4-2.5-.4-8.2 1.5-8.2 4.4-15.9 4.9-13.1.2 1.1-.1 5.4-.7 9.5zm-133.4-6.4c1.3 4.1-.2 4.9-1.7.9-1.2-3.1-1.3-4.4-.2-4.4.5 0 1.3 1.6 1.9 3.5zm-3.2 2.3c-.3.3-1.1 0-1.8-.7-.9-1-.8-1.1.6-.5 1 .3 1.5.9 1.2 1.2zm9.5.7c2.3 2.5 2.3 2.5.2 2.5-1.8 0-4.2-2.5-4.2-4.4 0-1.3 1.8-.4 4 1.9zm132.8 2.2c-.3 2.7-.1 10.4.4 17.2.5 6.8.6 12.6.4 12.8-.2.3-1.4-1.7-2.6-4.4-2-4.3-2.1-5.9-1.6-15.3.7-11.6 1.3-15 2.8-15 .6 0 .8 2 .6 4.7zm-90.3 312c.6 4.8 3.9 18.7 5.1 21.7.5 1.3-.5 1.6-7.1 1.5-6.7-.1-7.6-.3-7-1.7 2.8-6.8 5.6-16.5 6.2-20.9.3-2.9.9-5.3 1.3-5.3s1.1 2.1 1.5 4.7z"/><path d="M278.5 414.5c-1.6.9-3.7 2.2-4.5 2.9-.8.8-3.3 1.9-5.5 2.6-2.2.7-6.2 2.1-9 3.2-2.7 1.1-8.3 3.3-12.4 4.9-8.6 3.3-17.3 8.8-19.7 12.5-1.6 2.3-5.7 5.5-18.3 14-2.5 1.7-6.6 5.7-9.1 8.8-2.5 3.1-6.6 8.1-9.1 11.1-3.7 4.4-4.8 6.5-5.3 10.6-.4 3.1-.3 5.6.4 6.4.7.9.6 2.1-.5 4.1-1.7 3.4-1.9 5.4-.5 5.4 1.5 0 1.2 2.1-.5 3.4-.8.6-1.8 2.6-2.1 4.4-.6 2.8-.4 3.4 1.5 3.9 2.2.6 2.8 2.7 1.1 3.8-1.5 1-1.2 7.1.5 8.5.8.7 1.5 2.5 1.5 4s.9 3.5 1.9 4.4c1.1 1 2.2 2.9 2.6 4.4.3 1.4 2 4.1 3.6 5.9 1.6 1.9 2.9 3.7 2.9 4.2 0 .4 1.1 1.3 2.4 1.9 1.3.6 3.2 2.4 4.2 4.1 1 1.7 3.2 3.7 4.9 4.5 1.7.8 4 2.5 5.1 3.7 2.5 2.8 14.7 8.4 20.3 9.3 9.4 1.5 17.2 6.9 21.1 14.7 1.7 3.2 3.2 5.9 3.4 5.9.2 0-.3-2.1-1.1-4.8-2.1-6.7-2.1-7.7.1-7.7 1.6 0 2 .8 2.3 5 .7 8.2.4 14.8-.7 15.5-1.1.7-1.3 6.4-.4 14.1.4 3.6.1 8.6-.9 13.5-3 15.3-3.7 22-2.8 27 .7 3.7.5 6.5-1.1 12.8-1.9 7.3-2 9-.9 16.7 2 15.1 2.1 14.2-8 45.6-3.9 12.2-4.9 16.7-4.9 22.2 0 3.8-.5 11.4-1 17-.8 7.3-.7 14.1.1 24.8.7 8.1 1.3 17 1.4 19.8.3 6.2 1.3 14.7 2.6 20.3.8 3.6.5 5.1-1.5 10-3.2 7.6-5.8 25.9-4.8 33.3.5 3.1 2 7.5 3.5 10 8.6 14 11.7 18.4 16.2 23.2 2.8 2.9 5.8 6.3 6.8 7.6 2.1 2.6 4.1 2.3 4.5-.5.2-1.3-2.1-5-6.2-10-3.8-4.6-6.6-8.9-6.6-10.2 0-1.3-.5-3.2-1.1-4.3-.6-1.1-.9-2.5-.6-3.2.2-.6 1.8 1.5 3.7 4.8 4.5 7.9 8.5 11.4 13.1 11.5 4.7 0 7.2-2.6 4.4-4.6-1-.8-2.8-1.4-4-1.4-1.2 0-3.1-1-4.2-2.3-2.8-2.9-5.7-13.1-4.9-17.1.3-1.7 1.2-6 1.8-9.5.7-3.5 1.9-6.6 2.6-6.9 1.3-.4 8.9 7.3 9.6 9.8.2.8.7 2.7 1 4.2.7 3.2 4.2 4.6 6.3 2.6 1.2-1.3.9-2.7-2.4-10.9-4.6-11.4-9.8-20.6-12.3-21.9-1.1-.6-3.2-2.6-4.7-4.6-3.2-4.2-3.3-6.1-3.3-41.9 0-16.8-.5-25.2-2-35.5-1.1-7.4-2-15-2-16.8 0-3.5 5.8-19.2 7.1-19.2 1.8 0 2.2 14.8.7 26.9l.2 6.6.2 6 1.3-7.5c1.4-8.7 4.1-19.9 4.9-20.8.7-.6 1 5.1.6 12.2-.1 3.3.1 4.6.9 4.2.6-.4 1.1-1.5 1.1-2.4.1-1.2.6-.8 1.6 1 .8 1.6 1.7 2.8 1.9 2.8.2 0 .1-2.2-.2-4.9-.6-5 .4-9.2 4-17.1 1.7-3.8 2.1-6.6 2.1-18 .1-7.4-.3-16.8-.8-20.8-1.1-9.9.9-9.5 2.2.5.6 4.3 1.4 15.4 1.8 24.6.3 9.3 1 18.1 1.4 19.5 1.2 4.2.3-41.7-.9-47.7-1.3-6.2-1.4-12.1-.3-12.1.4 0 1.8 3 3 6.7 1.3 3.8 7.7 17.7 14.3 31.1 11.4 23.3 14.1 30 20.8 51.5 5 16 4.3 20.2-7.5 43.4-8.2 16.2-10.4 22.9-10.4 31.3 0 3-.1 6.6-.3 7.9-.2 2.3.5 2.6 14.3 6.2 8 2.1 15.9 3.8 17.6 3.9 2.1 0 3.4.6 3.9 1.7 1.4 3.4 2.1 30.2.8 31.9-.6.9-.9 3.1-.6 5.2.7 4.7 3.9 12.2 5.1 12.2 2.2 0 12.9 25.7 11.4 27.2-.6.6-3.6.6-8-.1-10.1-1.6-14.3-1.4-20.4 1-8.5 3.2-17.7 10.9-28.7 23.8-14.2 16.8-24.9 25.8-39.1 33.1-6 3.1-17.3 3.9-23 1.6-6.4-2.6-16.4.3-21 6.1-3.2 4.1-2.3 10.5 3.5 24.3 6.2 14.8 14.6 39.8 18.5 54.7 3.5 13.5 7.1 20.3 13.5 25.1 5.5 4.2 16 7.2 24.9 7.2 3.8 0 12.1.9 18.5 1.9 17.9 3 23.6 3.4 27.6 2.1 1.9-.6 3.5-1.8 3.5-2.5 0-4.6-17.2-17.3-34.2-25.3-6.5-3-11.2-5.9-12.2-7.5-.9-1.3-2.1-6-2.6-10.4s-1.8-11.6-2.9-16.1c-1.2-4.4-2.1-10.3-2.1-13.2 0-2.8-.5-7-1.1-9.3-1.4-5.8 1.8-14.3 7.7-20.7 10.7-11.5 78.4-45.8 78.4-39.8 0 .7-.7 8.5-1.5 17.3-1.6 18.3-3.4 26-8.1 36.3-3.8 8.4-15.9 28.6-19 31.7-1.4 1.4-2.6 4.6-3.4 9.2-1.6 9-.3 13.9 4.4 15.8 6 2.5 40.9 4.4 93.1 5.1 55 .7 66.3.1 69.9-3.6 2-1.9 2-2 0-4.1-2.5-2.8-6.9-5-20.7-10.3-6.2-2.4-14.5-6-18.4-8-8.5-4.2-18.1-7-31.8-9.1-5.5-.8-17.3-2.9-26.3-4.7-14.4-2.8-16.5-3-18.8-1.7-4.1 2.1-5.7-.8-5.1-9.1.6-8.5 3.2-15.5 16.8-45.5 11.6-25.5 15.7-32.8 24.6-43.1 7.1-8.4 11.2-14.8 13.4-20.9 2.5-7.1 6.9-24.2 6.9-26.9.1-1.1.9-3.9 2-6.1 2-4.1 2.8-15.9 1.1-16.9-.4-.3-1.1-4.6-1.5-9.7-.4-5-.9-10.4-1.3-12l-.5-2.9h6.5c6.9 0 10.4-1.8 9.3-4.7-.4-.9.6-1.9 3-2.9 1.9-.8 3.7-2.1 4-2.8.5-1.3-1.4-10.8-4.1-20.6-1.1-4.1-1.6-11.8-1.8-29.5-.3-21-.6-25-2.5-32-2.6-9.3-8.5-21.9-13.5-28.9-3.9-5.4-19.7-23.4-29.9-34.1-6.6-7-6.8-7.2-10.2-19-2.6-9.3-3.3-13.2-2.9-17.1.5-4.8.3-5.4-2.9-9-3.9-4.4-10.8-21.8-8-20.1.4.3 6.8 1 14.2 1.7 7.4.6 19.3 2.3 26.4 3.6 10.5 2.1 13.7 2.3 17.5 1.5 10.6-2.4 38.7-12.3 48-17 5.6-2.8 10.8-5.1 11.6-5.1 1.8 0 16.7-7.1 17.7-8.5.5-.6 1.9-.5 4 .4 8.3 3.4 10.3 3.5 22 1.8 6.2-.9 12.4-2 13.8-2.3 1.9-.4 3.7.4 7.3 3.2 2.6 2 4.7 4.4 4.7 5.3 0 1 .5 2.2 1.1 2.8.8.8.8 1.7 0 3.1-2.5 4.6.5 7.8 4.1 4.5 3.4-3 3.9-4.8 2.4-8.9-1.2-3.7-1.2-4 1.6-6.7 3.5-3.5 3.5-4.8.1-11.3-2.5-4.8-3.1-5.3-9.2-7.4-3.7-1.3-7-2.6-7.4-3-.5-.4 1.2-1.6 3.7-2.5 3.7-1.4 6.4-1.7 13.1-1.2 11.5.8 15.7.1 15.3-2.7-.3-1.9-1.2-2.2-9.7-3-6.5-.6-12.2-.5-18.5.4-5 .7-13.4 1.5-18.5 1.7-8.1.4-10 .2-13-1.5-4.9-2.7-13.4-1.7-16.5 1.9-2.6 3-7.1 5.9-9 5.9-1.8 0-17.8 7.9-18.6 9.1-.3.5-4.8 2.2-10 3.8-14.8 4.5-28.8 9.9-36.8 14.2-8.1 4.3-10.8 4.7-17.3 2.3-2.4-.8-10.9-3.1-18.9-5-8-2-19.6-5.3-25.9-7.5-6.2-2.1-12.1-3.9-13-3.9-1.2 0-2.3-2.2-4.1-7.8-3.4-10.5-3.3-10.2-1.6-10.2.9 0 1.6-.3 1.6-.8 0-.4.3-4.6.6-9.4.4-6.7.1-9.4-1.1-11.7-1.4-2.8-1.4-3.5.4-8.7 1.9-5.8 6.2-10.3 11.6-12.4 1.4-.5 2.4-1.4 2-1.9-.3-.5 1.5-6.9 4-14.2 4.8-14 5.4-18.8 3-24.5-1.5-3.5-10-15.3-12.2-16.7-1.3-.8-15.6-27.7-15-28.3.2-.2 2.4 1.1 4.8 2.9 2.4 1.9 5.5 3.7 6.9 4.2 1.4.4 4 2.3 5.8 4.4 3.2 3.5 3.3 3.5 1.8.6-1.4-3-9.8-11.3-14.9-14.7-1.4-1-3.3-3.9-4.2-6.5-2.9-8.1-3.4-8.7-16-21.6-14-14.3-18.1-16.9-27.5-17.4-26-1.4-33.5-1.3-36.5.2zm77.1 35.7c1.3 2.6 2 4.8 1.5 4.8-1 0-9.1-11.2-9.1-12.5 0-1.9 5.5 3.6 7.6 7.7zm-3.9 135.8c-.2 16.4-.4 18.9-1.7 18.4-.8-.3-4.8-1.5-8.9-2.7-8-2.4-11.1-5.4-11.1-10.8 0-3.7 5.3-11.1 11.3-15.7 2.9-2.2 6.1-4.9 7.2-6 1.1-1.2 2.3-2.1 2.7-2.1.3-.1.6 8.5.5 18.9zm-66.5-6.9c9.2 2 12.1 4 17.7 13 2.9 4.5 5.1 8.9 4.9 9.7-.4 2.1-6.6 5.6-14.5 8.3-7.3 2.4-12.4 7.5-15.1 15.1-1.9 5.5-3.2 6.2-3.2 1.8 0-1.6-1-5-2.2-7.6-2.1-4.1-2.1-4.7-.7-5.7 1.8-1.4 2.5-9.2.9-10.2-1.3-.8-1.3-8.1.1-10.6 1-1.9 1.1-1.9 3.1.3l2 2.3-1.6-2.7c-1.3-2.2-1.4-3.2-.4-5.3 1.5-3.3 2.3-3.2 3.8.5.7 1.6 1.9 3.5 2.6 4.1 1.2 1 1.3.8.5-1.3-.5-1.4-1.9-4.3-3-6.4-2.3-4.2-2.7-6.4-1.1-6.4.5 0 3.3.5 6.2 1.1zm284.7 28c3.2 1.1 6.7 6.1 5.6 8-.4.5-2.1-.3-4.1-2.1-1.9-1.6-3.9-3-4.4-3-.5 0-1.4-.9-2-2-1.3-2.4 0-2.6 4.9-.9zm-211.9 31.5c1.5 3.7 1.2 4.2-1 1.5-2.2-2.6-2.6-4.1-1-4.1.6 0 1.5 1.2 2 2.6zm11.5 3.1c1.8 4.2 1.8 4.3.5 4.3-1.1 0-2.5-2.5-3.4-6.3-.9-3.9 1-2.6 2.9 2zm9.8-1.5c.3.7 1.3 3.1 2.2 5.3l1.6 4-2-2.5c-2.4-2.9-4.4-8-3.2-8 .5 0 1.1.6 1.4 1.2zm-15.2 8.3c.6 1.1-.1.6-1.5-1-1.4-1.7-2.6-3.5-2.6-4 .1-1.1 2.7 2 4.1 5zm9.9 12.7c0 1.4-1.8.9-2.4-.8-1.1-2.8-.6-3.9.9-2 .8 1.1 1.5 2.3 1.5 2.8zm-97.5 46c-.4 2.4-1.1 7.7-1.5 11.8-1 9-2.5 16.8-3.3 17.7-.4.3-.5-5-.3-11.8.2-10.2.7-13.2 2.5-17.2 1.2-2.6 2.5-4.7 2.8-4.7.3 0 .2 1.9-.2 4.2zm-.8 36c-.3.8-.6.5-.6-.6-.1-1.1.2-1.7.5-1.3.3.3.4 1.2.1 1.9z"/><path d="M282.3 749.5c0 2.2.2 3 .4 1.7.2-1.2.2-3 0-4-.3-.9-.5.1-.4 2.3z"/></svg>