<svg version="1.0" xmlns="http://www.w3.org/2000/svg" viewBox="0 0 1280 430"><path d="M219.4 1.5c-9.5 1.7-13.4 3-22.9 7.8-19.3 9.6-32.5 30.9-32.5 52.7 0 17.4 10 37.5 22.5 45.5 2.5 1.5 4.4 2.9 4.2 3.1-.1.2-4.2-.3-8.9-1.1-43-6.9-90.7-2.2-121.5 12-38.2 17.7-63.7 58.2-59.3 94.2 4.5 36.4 32.3 60.9 78.3 68.9 7.1 1.3 13 1.5 25.7 1.1 17.9-.6 27.2-2.3 42-7.6 4.6-1.6 8.5-2.9 8.6-2.8 1.6 3 8.7 11.1 13.2 15.1 23.1 20.6 51.5 31 80.3 29.2 35.2-2.1 65.1-13.3 92.6-34.5 20.5-15.8 53.1-48.7 80.8-81.6 56.8-67.2 91.2-98.4 119.3-107.9 15.6-5.3 28.7-5.6 43-1.1 18 5.8 30.1 15.6 37.4 30.2 3.6 7.2 4.1 9.2 4.5 17 .7 11.2-.8 18.2-5.8 28.3-5.1 10.1-13.8 18.4-25.3 24.1-10.3 5-23.3 8.3-29.5 7.5-24.5-3.2-33.2-2.8-47.8 2-15.7 5.3-36.4 17.5-53.5 31.6-4.2 3.5-10.4 8.5-13.8 11.3-6.3 5.1-65 64.2-65 65.5 0 4.6 54.9 60.5 75 76.4 22.3 17.7 34.9 25.7 50.2 32 13.5 5.5 22 7 37.2 6.3 15.1-.7 21.8-2.2 33.6-7.9 20-9.6 34-31.5 34-53.3 0-19.6-12-40.6-27.9-48.9l-6.4-3.4 6.1-3.1c8.2-4.1 12.2-7.9 18.2-16.8 6.9-10.3 9.4-18.9 9.5-32.3 0-12.4-2.6-21.7-8.5-30.9-4.9-7.6-14.1-16.5-21.3-20.6l-5.9-3.2 6.8-.8c8.6-.9 18-3.8 26.5-8.1 11.4-5.7 21.7-19.3 25.3-33.4 1.3-5.2 1.4-5.3 2-2.5 2.6 11.9 6.3 19.7 13.5 28.3 8 9.6 23.5 16.9 38.4 17.9 4.2.3 7.7.9 7.7 1.3 0 .3-2.3 1.7-5.2 3.1-7 3.2-19.4 15.6-23.5 23.4-5.2 9.9-6.7 16.6-6.7 29 .1 12.5 2.1 19.9 7.9 29.6 4.5 7.3 13.7 16 20.3 19 2.8 1.3 5.2 2.6 5.2 2.9 0 .3-2.4 1.6-5.2 2.9-6.6 3-15.8 11.7-20.3 19-5.8 9.7-7.8 17.1-7.9 29.6-.1 17.9 4.7 29.8 17 42.2 11.9 11.9 28.4 18.7 48.6 20 36.2 2.3 71.9-18.7 128-75.3 21.8-22 35.8-37.4 35.8-39.5 0-.9-32.7-34.8-48.4-50.2-6.7-6.5-18.8-17.3-27.1-24-41.1-33-66.9-42.8-98.8-37.2-12.1 2.1-21.7.1-37-7.8-18.7-9.6-29.7-27.2-29.7-47.7 0-17.7 9.6-34 25.2-43.1 27.6-16.2 54.2-14.3 84.3 6 22 14.7 53.4 46 91 90.6 26.6 31.6 63.4 69.4 81.5 83.8 27.7 22.2 57 33.8 92.1 36.6 32.7 2.7 62.4-8 85.7-30.7 4.3-4.2 8.8-9 9.9-10.5l1.9-2.9 8.8 3.1c25.8 9.1 56.4 10.5 80.4 3.5 32.9-9.5 52.5-25.3 61.3-49.4 7.2-19.9 5.5-40.9-5.2-62.4-21.8-43.9-69.6-65.7-138.9-63.2-10.2.3-23.9 1.4-30.4 2.4-10.1 1.5-11.5 1.6-9.5.3 1.3-.8 5.1-4.2 8.5-7.6 17-17 21.1-44 10.2-66.3-2.3-4.6-5.8-9.3-11.4-14.9-6.6-6.8-9.5-9-16.5-12.2-12.1-5.7-18.6-7.2-33.5-7.8-15.3-.6-23.2.7-37.2 6.3-22.7 9.2-51.2 30.4-81.7 60.9-26.1 26-43.5 44-43.5 45 0 2 13.5 17 34.9 38.8 57.2 58 95.7 80 132.3 75.7 5.1-.6 10.5-1.3 11.9-1.6 2.4-.5 2.7-.3 3.3 3.7 1.1 7 6.2 15.2 14.4 23.2 8.3 7.9 17.1 13.6 29.6 18.8l7.9 3.3-7.2 6.8c-31.1 29.1-74 36.1-117.6 19.1-34.8-13.6-61.7-34.6-115-89.9-64.2-66.5-80.4-81.8-105.5-99.5-22.7-16.1-43.7-23.9-64.2-23.9-33.8.1-61.2 18.2-68.9 45.5-1.6 5.7-1.7 5.8-2.4 3-3.3-14.4-8.8-23.9-19.1-33.3-11.1-10.2-27.1-16.4-46.4-17.8-24.5-1.8-52.9 9.8-82 33.6-4.1 3.4-10 7.9-13 10.2-3 2.2-18.5 17.4-34.5 33.7-82.5 84.1-101.1 101.7-125.2 117.9-22.3 15-50.6 25.3-73.4 26.8-24.2 1.6-50.2-5.8-68.9-19.6-6.6-4.9-16.8-14.7-15.9-15.3.2-.2 5.6-2.8 11.9-5.9 6.3-3.1 14.3-7.6 17.7-10.1 10.9-8.1 19.8-20.7 21-29.7.4-3.1.9-3.9 2.2-3.6.9.3 4.5 1 8.1 1.6 39 6.1 76.3-14.3 136.1-74.6 22.5-22.7 35.9-37.5 35.9-39.6 0-.4-13.6-14.6-30.2-31.4-52.2-52.9-82.1-73.9-113.6-80-8.9-1.7-21.2-1.7-30.8.1zm31.8 3.9c28.3 5.4 57 27.6 104.3 80.6 6.6 7.4 14.9 16.8 18.3 20.7l6.4 7.3-9.4 10.7c-29.9 34.5-59.5 64.5-75.5 76.4-29.3 21.8-54.9 27.9-78.8 18.7-3.2-1.2-5.7-2.8-6-3.9-.4-1-2.4-4.2-4.7-7-4.1-5.2-11.9-9.9-16.6-9.9-1.6 0-3.1-1.4-5.3-4.8-12.8-20.2-6.5-50.8 13.6-65.9 11.6-8.7 14.2-9.6 30-9.9 17.2-.3 32.4-2.8 30.3-5-1.6-1.5-18.8-3.7-30.8-3.8-12.3-.2-13.9-.5-18.5-2.8-16.1-8.3-26.1-20.7-30-37-6.4-27.3 10.6-53 41.5-62.7 11.1-3.4 19.6-3.9 31.2-1.7zm804.3 3.1c19.4 4.5 35.4 16.7 42.7 32.2 10.4 22.2 2.2 49.8-19.1 64.2-10.3 7-11.4 7.3-23.1 7.2-9.6-.2-31 2.2-33.3 3.6-3.7 2.3 14.1 5.3 31.2 5.3 11.9 0 12.5.1 18.1 3.1 13.9 7.4 23.6 18.2 28.1 31.6 3.3 9.6 3.3 24.2-.1 32.8-3.7 9.5-6.6 13.5-9.8 13.5-6.4.1-15.6 7-19.7 15-2.9 5.6-15.6 9.5-30.5 9.3-11.1-.2-23.1-3.3-33.8-8.7-22.9-11.7-52.3-38.8-94.6-87.5l-11.6-13.3 4.3-5.1c2.3-2.8 9.7-11.3 16.5-18.9 56.4-63.5 87.3-85.6 119.7-85.7 5-.1 11.7.6 15 1.4zm-862.7 104.1c2.8.4 5.2 1 5.2 1.3 0 .3-2.7 1.9-6.1 3.5-15 7.2-26.3 25.5-27.6 44.9-.7 10.7 1.5 20.9 6.6 30.9l3.9 7.8-4.9 3.6c-10.1 7.4-17.6 18.7-20 30.2-1.6 8.1-.7 23.4 2 30.2 1.1 3 1.7 5.7 1.3 6.1-1.3 1.4-18.1 5.8-28.1 7.4-7.5 1.3-14.2 1.6-26.3 1.3-15.1-.4-17-.6-25.5-3.6-16.3-5.6-24.9-10.5-33.9-19.6-13.5-13.5-18.8-26.5-18.8-46.6 0-13.1 1.6-20.6 6.8-31.7 18-38 58.7-61.1 117.1-66.3 10.3-.9 39-.5 48.3.6zm59.7 1.4c.4.6-3.2 1-9.9 1-6.4 0-10.6-.4-10.6-1s4-1 9.9-1c5.6 0 10.3.4 10.6 1zm898.5 2.5c48.7 7.6 84 29.4 100.3 62 6.2 12.4 8.2 20.5 8.1 33.5 0 13.4-1.7 20.9-7.1 32-4.1 8.3-15.4 20.6-23.3 25.3-6.9 4-23.8 10.5-31.9 12.2-8.4 1.7-26.4 2-37.8.4-7.6-1-29.8-6.4-32-7.7-.8-.5-.5-2.5.9-6.7 2.6-7.5 3.5-22.6 1.8-30.4-2.5-11.6-11-23.6-22.3-31.7l-2.9-2 3.1-5c6.9-10.7 9.6-27.7 6.7-41.4-3.4-16.1-13.9-30.7-26.5-37-3.4-1.7-6.1-3.4-5.8-3.6 2.7-2.7 51.5-2.6 68.7.1zm-103.6-.4c1.9.1 1.8.2-.4.9-3.3 1-13.8 1.2-18.1.3l-3.4-.8 4-.6c2.2-.4 6.7-.5 9.9-.3s6.8.4 8 .5zm-491.9 89c2.8.6 9.7 3.4 15.5 6.1 8.4 4.1 11.7 6.3 16.6 11.3 12.2 12.5 17.3 28.4 14.2 44.2-2.9 14.6-9.8 25.7-21 33.6-11.5 8.1-12.4 8.4-30.3 9-17.3.5-28.8 2.2-28.2 4.1.6 1.9 12.5 3.7 28.5 4.2 8.4.2 16.4.9 17.9 1.5 4.7 1.8 15.9 9.7 20 14.2 22.6 24.5 17.1 62.2-11.3 78.8-14.1 8.2-22.9 10.8-36.5 10.9-33.6.1-67-24.6-128.2-94.9l-12.6-14.4 1.9-2.6c1-1.4 6-7.3 11.1-13.1 69.1-78.9 103.2-101.2 142.4-92.9zm-358.7.8c4.1 2.1 8.9 6.7 7.9 7.7-.7.7-8.4-4.5-11.1-7.5-2.4-2.6-1.6-2.7 3.2-.2zm-12.7 4.5c5.4 4.8 13.4 9.6 21.3 12.6 2.7 1 2.8 1.2 2.1 5.7-1.4 9.2-6.7 17.1-16.5 24.5-6.3 4.8-29 16.8-31.8 16.8-.7 0-2.3-2.1-3.5-4.8-1.8-3.9-2.2-6.5-2.2-16.2 0-13.6 1.8-20.3 8-29.4 3.8-5.7 13.3-14.6 15.6-14.6.6 0 3.8 2.4 7 5.4zm575.9-.8c4.7 1.4 11 3.9 14 5.4 15.5 7.9 37.8 26.4 61.7 51.3 13.3 13.9 43.8 48.5 43.8 49.7 0 2.1-33.8 39.4-53.5 59-28.4 28.3-44.9 40.3-64.6 47-9 3-11 3.3-21.9 3.4-10.6.1-12.9-.2-20-2.7-29.5-10.1-45.6-32.8-41.7-58.4 2.8-17.7 12.9-31.5 29.7-40.5 5.9-3.1 6.3-3.2 20-3.4 7.7-.1 17.5-.9 21.8-1.7 11.8-2.2 11.8-3.2 0-5.4-4.3-.8-14.1-1.6-21.8-1.7-13.7-.3-14.3-.4-20.1-3.5-16.6-8.8-26.6-22.4-29.5-40-4.3-25.8 12.9-49.8 42.1-59 9.3-2.9 10.4-3 21.5-2.6 7.3.3 12.3 1.1 18.5 3.1zm325.5.3c-3.6 3.4-10.5 7.6-10.5 6.4 0-1.1 5.8-6.6 8.5-8.1 3.9-2.2 5-1.3 2 1.7zm21.1-.1c13.2 9.7 20.4 24.2 20.4 41.3 0 7.5-2.9 20.1-4.9 21.4-.5.3-4.6-1.1-9-3-24.2-10.3-38.7-24.1-40.7-38.5l-.6-4.5 3.8-1.4c6.9-2.4 15.8-7.9 20.9-12.9 2.8-2.7 5.3-4.9 5.6-5 .3-.1 2.4 1.1 4.5 2.6zm-559.6 103.1c3.9 1.1-9 2.2-15.9 1.4-4.5-.5-5.1-.8-3.1-1.4 3.2-.9 15.8-.9 19 0zm206 3.1c0 .6-4.2 1-10.5 1s-10.5-.4-10.5-1 4.2-1 10.5-1 10.5.4 10.5 1z" fill="#fff"/></svg>